<svg xmlns="http://www.w3.org/2000/svg" height="40" viewBox="0 -960 960 960" width="40"><path d="M480.015-492.245q-57.123 0-94.947-37.808-37.823-37.809-37.823-95.06 0-57.251 37.809-94.947 37.808-37.695 94.931-37.695t94.947 37.681q37.823 37.68 37.823 94.931 0 57.252-37.809 95.075-37.808 37.823-94.931 37.823ZM184.27-193.861v-77.408q0-31.014 16.382-54.672 16.381-23.658 43.265-36.432 61.405-27.836 119.679-42.193 58.273-14.356 116.402-14.356t116.245 14.384q58.115 14.385 119.415 42.44 27.468 12.644 43.77 36.278 16.302 23.633 16.302 54.712v77.247H184.27Zm47.884-47.883h495.692v-29.391q0-14.786-9.102-27.832-9.103-13.046-23.385-20.854-56.64-27.308-108.751-39.263-52.111-11.955-106.546-11.955-54.784 0-107.179 11.955-52.396 11.955-108.126 39.263-14.808 7.808-23.706 20.94-8.897 13.132-8.897 27.77v29.367ZM480-540.128q35.974 0 60.423-24.448 24.449-24.449 24.449-60.424 0-35.974-24.449-60.423-24.449-24.448-60.423-24.448-35.974 0-60.423 24.448-24.449 24.449-24.449 60.423 0 35.975 24.449 60.424 24.449 24.448 60.423 24.448ZM480-625Zm0 383.256Z"/></svg>